<?xml version="1.0" encoding="utf-8"?>
<!-- Generator: Adobe Illustrator 16.2.1, SVG Export Plug-In . SVG Version: 6.00 Build 0)  -->
<!DOCTYPE svg PUBLIC "-//W3C//DTD SVG 1.1//EN" "http://www.w3.org/Graphics/SVG/1.1/DTD/svg11.dtd">
<svg version="1.1" id="Layer_1" xmlns="http://www.w3.org/2000/svg" xmlns:xlink="http://www.w3.org/1999/xlink" x="0px" y="0px"
	 width="30px" height="30px" viewBox="0 0 30 30" enable-background="new 0 0 30 30" xml:space="preserve">
<path fill="#404040" d="M18.443,14.769L7.057,25.553c-0.684,0.646-0.684,1.69,0,2.336l0.381,0.361c0.68,0.645,1.785,0.645,2.464,0
	l13.042-12.278c0.351-0.332,0.519-0.769,0.511-1.204c0.008-0.434-0.16-0.871-0.511-1.202L9.902,1.289
	c-0.679-0.646-1.785-0.646-2.464,0l-0.381,0.36c-0.684,0.646-0.684,1.69,0,2.336L18.443,14.769z"/>
<g>
	<path fill="#404040" d="M18.443,14.769L7.057,25.553c-0.684,0.646-0.684,1.69,0,2.336l0.381,0.361c0.68,0.645,1.785,0.645,2.464,0
		l13.042-12.278c0.351-0.332,0.519-0.769,0.511-1.204c0.008-0.434-0.16-0.871-0.511-1.202L9.902,1.289
		c-0.679-0.646-1.785-0.646-2.464,0l-0.381,0.36c-0.684,0.646-0.684,1.69,0,2.336L18.443,14.769z"/>
	<path fill="#FFFFFF" d="M8.67,0.303c0.595,0,1.156,0.222,1.578,0.623l13.039,12.275c0.442,0.418,0.68,0.978,0.668,1.577
		c0.012,0.578-0.225,1.138-0.667,1.557L10.246,28.614c-0.842,0.798-2.308,0.799-3.152-0.002l-0.381-0.361
		c-0.431-0.406-0.669-0.949-0.669-1.529s0.237-1.124,0.669-1.532l11.001-10.42L6.713,4.348C6.282,3.941,6.044,3.397,6.044,2.817
		s0.237-1.124,0.669-1.531l0.381-0.36C7.515,0.525,8.076,0.303,8.67,0.303z M8.67,28.233c0.337,0,0.652-0.123,0.888-0.347
		l13.043-12.279c0.234-0.221,0.359-0.516,0.354-0.829c0.006-0.333-0.119-0.628-0.354-0.849L9.561,1.653
		C9.085,1.202,8.253,1.204,7.783,1.651L7.401,2.012C7.17,2.229,7.044,2.515,7.044,2.817S7.17,3.405,7.401,3.622L19.17,14.769
		L7.401,25.916c-0.23,0.218-0.356,0.503-0.356,0.806c0,0.302,0.127,0.587,0.355,0.803l0.382,0.362
		C8.018,28.11,8.333,28.233,8.67,28.233z"/>
</g>
</svg>
