<?xml version="1.0" encoding="utf-8"?>
<!-- Generator: Adobe Illustrator 16.2.1, SVG Export Plug-In . SVG Version: 6.00 Build 0)  -->
<!DOCTYPE svg PUBLIC "-//W3C//DTD SVG 1.1//EN" "http://www.w3.org/Graphics/SVG/1.1/DTD/svg11.dtd">
<svg version="1.1" id="Layer_1" xmlns="http://www.w3.org/2000/svg" xmlns:xlink="http://www.w3.org/1999/xlink" x="0px" y="0px"
	 width="30px" height="30px" viewBox="0 0 30 30" enable-background="new 0 0 30 30" xml:space="preserve">
<path fill="#404040" d="M11.557,14.747L22.942,3.963c0.684-0.646,0.684-1.69,0-2.335l-0.381-0.361c-0.68-0.645-1.785-0.645-2.465,0
	L7.055,13.544c-0.351,0.333-0.519,0.769-0.51,1.204c-0.009,0.434,0.159,0.871,0.51,1.202l13.042,12.277
	c0.68,0.646,1.785,0.646,2.465,0l0.381-0.36c0.684-0.646,0.684-1.69,0-2.336L11.557,14.747z"/>
<g>
	<path fill="#404040" d="M11.557,14.747L22.942,3.963c0.684-0.646,0.684-1.69,0-2.335l-0.381-0.361c-0.68-0.645-1.785-0.645-2.465,0
		L7.055,13.544c-0.351,0.333-0.519,0.769-0.51,1.204c-0.009,0.434,0.159,0.871,0.51,1.202l13.042,12.277
		c0.68,0.646,1.785,0.646,2.465,0l0.381-0.36c0.684-0.646,0.684-1.69,0-2.336L11.557,14.747z"/>
	<path fill="#FFFFFF" d="M21.329,29.213c-0.595,0-1.155-0.222-1.577-0.623L6.712,16.314c-0.442-0.418-0.68-0.978-0.667-1.577
		C6.033,14.16,6.27,13.6,6.711,13.182L19.754,0.902c0.842-0.798,2.308-0.799,3.151,0.001l0.381,0.361
		c0.431,0.406,0.669,0.95,0.669,1.529c0,0.58-0.237,1.125-0.669,1.532l-11.002,10.42l11.002,10.421
		c0.432,0.407,0.669,0.951,0.669,1.531s-0.237,1.124-0.669,1.531l-0.381,0.36C22.484,28.991,21.924,29.213,21.329,29.213z
		 M21.329,1.283c-0.337,0-0.652,0.123-0.889,0.347L7.398,13.909c-0.234,0.221-0.359,0.516-0.353,0.829
		c-0.006,0.333,0.119,0.628,0.354,0.849l13.041,12.276c0.475,0.451,1.307,0.449,1.777,0.002l0.382-0.361
		c0.23-0.217,0.356-0.503,0.356-0.805s-0.126-0.588-0.356-0.805l-11.77-11.147l11.77-11.146c0.23-0.218,0.356-0.503,0.356-0.806
		c0-0.302-0.127-0.587-0.355-0.803l-0.382-0.362C21.981,1.406,21.666,1.283,21.329,1.283z"/>
</g>
</svg>
